<?xml version="1.0" encoding="UTF-8" standalone="no"?>
<!-- Created with Inkscape (http://www.inkscape.org/) -->

<svg
   xmlns:dc="http://purl.org/dc/elements/1.1/"
   xmlns:cc="http://creativecommons.org/ns#"
   xmlns:rdf="http://www.w3.org/1999/02/22-rdf-syntax-ns#"
   xmlns:svg="http://www.w3.org/2000/svg"
   xmlns="http://www.w3.org/2000/svg"
   xmlns:sodipodi="http://sodipodi.sourceforge.net/DTD/sodipodi-0.dtd"
   xmlns:inkscape="http://www.inkscape.org/namespaces/inkscape"
   version="1.1"
   width="183.56152"
   height="146.58603"
   id="svg2"
   xml:space="preserve"
   inkscape:version="0.48.5 r10040"
   sodipodi:docname="logo-tr-2.svg"><sodipodi:namedview
     pagecolor="#aaaaaa"
     bordercolor="#666666"
     borderopacity="1"
     objecttolerance="10"
     gridtolerance="10"
     guidetolerance="10"
     inkscape:pageopacity="0.99215686"
     inkscape:pageshadow="2"
     inkscape:window-width="1231"
     inkscape:window-height="740"
     id="namedview52"
     showgrid="false"
     inkscape:zoom="1.63"
     inkscape:cx="173.84899"
     inkscape:cy="58.638297"
     inkscape:window-x="0"
     inkscape:window-y="0"
     inkscape:window-maximized="0"
     inkscape:current-layer="layer3"
     fit-margin-top="3"
     fit-margin-left="4"
     fit-margin-right="4"
     fit-margin-bottom="3" /><metadata
     id="metadata8"><rdf:RDF><cc:Work
         rdf:about=""><dc:format>image/svg+xml</dc:format><dc:type
           rdf:resource="http://purl.org/dc/dcmitype/StillImage" /><dc:title></dc:title></cc:Work></rdf:RDF></metadata><defs
     id="defs6"><linearGradient
       id="linearGradient3893"><stop
         style="stop-color:#8c571f;stop-opacity:0.66666669;"
         offset="0"
         id="stop3895" /><stop
         style="stop-color:#000000;stop-opacity:0;"
         offset="1"
         id="stop3897" /></linearGradient><linearGradient
       id="linearGradient3883"><stop
         style="stop-color:#8c571f;stop-opacity:0.91764706;"
         offset="0"
         id="stop3885" /><stop
         style="stop-color:#8c571f;stop-opacity:0.74117649;"
         offset="1"
         id="stop3887" /></linearGradient><clipPath
       id="clipPath18"><path
         d="M 0,2478.86 0,0 l 2466.67,0 0,2478.86 -2466.67,0 z"
         inkscape:connector-curvature="0"
         id="path20" /></clipPath><clipPath
       id="clipPath54"><path
         d="m 2297.34,870.691 -1010.37,0 c 3.98,7.789 7.99,15.508 12.04,23.098 24.08,45.051 50.68,86.543 73.33,135.701 19.37,42.06 36.39,87.98 51.54,135.54 11.95,37.49 21.53,77.62 29.48,118.51 7,35.98 12.81,73.4 15.33,111.67 l 0,0 c 1.24,18.52 1.77,37.21 1.77,55.9 0,20.95 -0.67,41.91 -1.76,62.64 l 0,-0.01 0,0 c -1.25,23.77 -4.27,46.85 -7.28,69.75 l 835.92,0 0,-712.799 m -1025.9,0 -176.01,0 c 2.2,5.618 4.35,11.309 6.45,17.059 14.2,38.969 26.33,81.219 34.89,125.71 6.45,33.71 8,69.91 9.41,104.93 0.96,23.39 1.77,47.05 1.77,70.71 0,18.28 -0.48,36.55 -1.78,54.71 -3.26,45.55 -12.29,88.48 -18.34,132.03 l -0.11,0.81 -0.3,0.76 c -21.78,55.45 -38.62,120.19 -66.27,168.8 -7.56,13.24 -15.49,25.59 -23.68,37.28 l 409.98,0 c 3.09,-23.5 6.19,-46.8 7.42,-70.47 l 0,0 c 1.08,-20.54 1.74,-41.25 1.74,-61.91 0,-18.43 -0.52,-36.81 -1.74,-54.98 l 0,-0.01 c -2.47,-37.47 -8.17,-74.31 -15.11,-109.93 -7.87,-40.52 -17.34,-80.15 -29.08,-116.95 -15.02,-47.17 -31.86,-92.58 -50.92,-133.96 -22.13,-48.081 -48.52,-89.292 -72.96,-134.96 -5.21,-9.75 -10.31,-19.672 -15.36,-29.629 m -190.9,0 -248.388,0 c 9.914,28.278 19.848,56.707 28.438,86.789 11.461,40.18 21.808,81.87 29.43,125.35 5.984,34.22 10.621,70.18 11.089,106.5 0.032,2.5 0.047,4.97 0.047,7.4 -0.031,46.72 -5.758,79.28 -16.101,101.07 -5.188,10.88 -11.633,19.12 -19.305,24.66 -7.613,5.52 -16.406,8.17 -25.359,8.17 -0.043,0 -0.086,0 -0.129,0 -14.485,-0.04 -29.215,-6.37 -43.754,-16.52 -21.793,-15.3 -43.449,-39.63 -62.258,-68.21 -18.781,-28.58 -34.637,-61.4 -44.254,-93.75 l 13.277,-3.94 c 12.184,41.09 35.399,83.88 61.399,115.96 12.984,16.05 26.672,29.42 39.781,38.6 13.055,9.17 25.457,14.01 35.664,14.01 0.051,0 0.098,0 0.145,0 6.41,-0.02 12.023,-1.71 17.383,-5.55 7.992,-5.73 15.558,-16.96 20.988,-35.7 5.433,-18.7 8.679,-44.63 8.672,-78.8 0,-2.37 -0.012,-4.78 -0.043,-7.23 -0.453,-35.24 -4.973,-70.49 -10.887,-104.28 -7.512,-42.86 -17.734,-84.08 -29.105,-123.939 -8.895,-31.172 -19.344,-60.769 -29.793,-90.59 l -338.125,0 c -4.52,19.969 -8.196,40.481 -9.934,61.547 -1.606,19.344 -2.313,38.981 -2.313,58.684 0,21.708 0.86,43.468 2.321,64.938 3.304,49.07 10.402,97.27 18.203,144.78 9.277,56.46 19.019,112.95 32.789,165.57 15.945,60.92 34.504,119.79 56.016,174.01 5.843,14.72 11.906,29.14 18.16,43.27 l 425.856,0 c 10.01,-13.73 19.63,-28.29 28.67,-44.14 26.24,-45.92 43.16,-109.92 65.11,-166.23 6.15,-43.89 14.99,-86.24 18.13,-130.3 1.26,-17.74 1.74,-35.69 1.74,-53.72 0,-23.34 -0.8,-46.82 -1.76,-70.15 -1.4,-34.99 -2.97,-70.57 -9.18,-102.88 -8.4,-43.699 -20.33,-85.25 -34.29,-123.578 -2.69,-7.371 -5.47,-14.64 -8.33,-21.801 m -615.38,0 -95.699,0 c -0.098,0.278 -0.191,0.571 -0.285,0.848 -10.719,32.242 -18.488,68.16 -27.84,102.813 -2.371,37.428 -7.309,74.148 -7.301,110.808 0,1.9 0.016,3.8 0.043,5.7 0.652,45.92 6.219,91.47 10.93,137.13 5.086,49.29 8.715,99.47 18.187,145.5 9.953,48.41 26.309,91.69 40.082,137.87 l 22.063,72.13 154.125,0 c -5.457,-12.49 -10.766,-25.21 -15.906,-38.16 -21.77,-54.88 -40.481,-114.26 -56.543,-175.61 -13.969,-53.42 -23.758,-110.31 -33.051,-166.84 -7.828,-47.66 -15.004,-96.3 -18.36,-146.08 -1.476,-21.73 -2.351,-43.81 -2.351,-65.878 0,-20.031 0.719,-40.051 2.359,-59.82 1.723,-20.84 5.239,-40.973 9.547,-60.411 m -110.281,0 -113.473,0 c -0.992,2.379 -1.961,4.778 -2.918,7.207 -15.754,39.883 -26.441,86.922 -39.832,131.182 -2.34,38.97 -7.324,77.28 -7.316,115.51 0,2.6 0.023,5.2 0.07,7.79 0.871,48.63 6.485,96.85 12.172,144.74 7.742,65.31 16.606,130.23 27.957,193.5 6.836,38.11 14,76.22 22.609,112.87 l 156.707,0 -20.828,-68.1 -0.007,-0.03 c -13.567,-45.56 -30.133,-89.3 -40.391,-139.08 -9.711,-47.27 -13.324,-97.86 -18.399,-146.86 -4.683,-45.49 -10.328,-91.45 -11,-138.36 -0.031,-1.97 -0.042,-3.93 -0.042,-5.9 0.011,-38.13 5.078,-75.37 7.367,-112.359 l 0.047,-0.711 0.179,-0.668 c 8.996,-33.203 16.594,-68.25 27.098,-100.731 m -128.43,0 -79.511,0 0,712.799 92.988,0 c -8.379,-36.08 -15.36,-73.32 -22.02,-110.43 -11.422,-63.65 -20.316,-128.84 -28.078,-194.31 -5.683,-47.9 -11.375,-96.59 -12.266,-146.11 -0.046,-2.69 -0.074,-5.37 -0.074,-8.05 0.012,-39.7 5.133,-78.56 7.391,-117.14 l 0.047,-0.82 0.238,-0.79 c 13.336,-43.828 24.063,-91.469 40.441,-133.031 0.282,-0.707 0.563,-1.418 0.844,-2.118"
         inkscape:connector-curvature="0"
         id="path56" /></clipPath><clipPath
       id="clipPath66"><path
         d="m 1286.97,870.691 -15.53,0 c 5.05,9.957 10.15,19.879 15.36,29.629 24.44,45.668 50.83,86.879 72.96,134.96 19.06,41.38 35.9,86.79 50.92,133.96 11.74,36.8 21.21,76.43 29.08,116.95 6.94,35.62 12.64,72.46 15.11,109.93 l 0,0.01 c 1.22,18.17 1.74,36.55 1.74,54.98 0,20.66 -0.66,41.37 -1.74,61.91 l 0,0 c -1.23,23.67 -4.33,46.97 -7.42,70.47 l 13.97,0 c 3.01,-22.9 6.03,-45.98 7.28,-69.75 l 0,0.01 c 1.09,-20.73 1.76,-41.69 1.76,-62.64 0,-18.69 -0.53,-37.38 -1.77,-55.9 l 0,0 c -2.52,-38.27 -8.33,-75.69 -15.33,-111.67 -7.95,-40.89 -17.53,-81.02 -29.48,-118.51 -15.15,-47.56 -32.17,-93.48 -51.54,-135.54 -22.65,-49.158 -49.25,-90.65 -73.33,-135.701 -4.05,-7.59 -8.06,-15.309 -12.04,-23.098 m -191.54,0 -14.89,0 c 2.86,7.161 5.64,14.43 8.33,21.801 13.96,38.328 25.89,79.879 34.29,123.578 6.21,32.31 7.78,67.89 9.18,102.88 0.96,23.33 1.76,46.81 1.76,70.15 0,18.03 -0.48,35.98 -1.74,53.72 -3.14,44.06 -11.98,86.41 -18.13,130.3 -21.95,56.31 -38.87,120.31 -65.11,166.23 -9.04,15.85 -18.66,30.41 -28.67,44.14 l 17.02,0 c 8.19,-11.69 16.12,-24.04 23.68,-37.28 27.65,-48.61 44.49,-113.35 66.27,-168.8 l 0.3,-0.76 0.11,-0.81 c 6.05,-43.55 15.08,-86.48 18.34,-132.03 1.3,-18.16 1.78,-36.43 1.78,-54.71 0,-23.66 -0.81,-47.32 -1.77,-70.71 -1.41,-35.02 -2.96,-71.22 -9.41,-104.93 -8.56,-44.491 -20.69,-86.741 -34.89,-125.71 -2.1,-5.75 -4.25,-11.441 -6.45,-17.059 m -263.278,0 -14.675,0 c 10.449,29.821 20.898,59.418 29.793,90.59 11.371,39.859 21.593,81.079 29.105,123.939 5.914,33.79 10.434,69.04 10.887,104.28 0.031,2.45 0.043,4.86 0.043,7.23 0.007,34.17 -3.239,60.1 -8.672,78.8 -5.43,18.74 -12.996,29.97 -20.988,35.7 -5.36,3.84 -10.973,5.53 -17.383,5.55 -0.047,0 -0.094,0 -0.145,0 -10.207,0 -22.609,-4.84 -35.664,-14.01 -13.109,-9.18 -26.797,-22.55 -39.781,-38.6 -26,-32.08 -49.215,-74.87 -61.399,-115.96 l -13.277,3.94 c 9.617,32.35 25.473,65.17 44.254,93.75 18.809,28.58 40.465,52.91 62.258,68.21 14.539,10.15 29.269,16.48 43.754,16.52 0.043,0 0.086,0 0.129,0 8.953,0 17.746,-2.65 25.359,-8.17 7.672,-5.54 14.117,-13.78 19.305,-24.66 10.343,-21.79 16.07,-54.35 16.101,-101.07 0,-2.43 -0.015,-4.9 -0.047,-7.4 -0.468,-36.32 -5.105,-72.28 -11.089,-106.5 -7.622,-43.48 -17.969,-85.17 -29.43,-125.35 -8.59,-30.082 -18.524,-58.511 -28.438,-86.789 m -352.8,0 -14.192,0 c -4.308,19.438 -7.824,39.571 -9.547,60.411 -1.64,19.769 -2.359,39.789 -2.359,59.82 0,22.068 0.875,44.148 2.351,65.878 3.356,49.78 10.532,98.42 18.36,146.08 9.293,56.53 19.082,113.42 33.051,166.84 16.062,61.35 34.773,120.73 56.543,175.61 5.14,12.95 10.449,25.67 15.906,38.16 l 15.129,0 c -6.254,-14.13 -12.317,-28.55 -18.16,-43.27 -21.512,-54.22 -40.071,-113.09 -56.016,-174.01 -13.77,-52.62 -23.512,-109.11 -32.789,-165.57 -7.801,-47.51 -14.899,-95.71 -18.203,-144.78 -1.461,-21.47 -2.321,-43.23 -2.321,-64.938 0,-19.703 0.707,-39.34 2.313,-58.684 1.738,-21.066 5.414,-41.578 9.934,-61.547 m -109.891,0 -14.582,0 c -10.504,32.481 -18.102,67.528 -27.098,100.731 l -0.179,0.668 -0.047,0.711 c -2.289,36.989 -7.356,74.229 -7.367,112.359 0,1.97 0.011,3.93 0.042,5.9 0.672,46.91 6.317,92.87 11,138.36 5.075,49 8.688,99.59 18.399,146.86 10.258,49.78 26.824,93.52 40.391,139.08 l 0.007,0.03 20.828,68.1 14.485,0 -22.063,-72.13 c -13.773,-46.18 -30.129,-89.46 -40.082,-137.87 -9.472,-46.03 -13.101,-96.21 -18.187,-145.5 -4.711,-45.66 -10.278,-91.21 -10.93,-137.13 -0.027,-1.9 -0.043,-3.8 -0.043,-5.7 -0.008,-36.66 4.93,-73.38 7.301,-110.808 9.352,-34.653 17.121,-70.571 27.84,-102.813 0.094,-0.277 0.187,-0.57 0.285,-0.848 m -128.055,0 -14.957,0 c -0.281,0.7 -0.562,1.411 -0.844,2.118 -16.378,41.562 -27.105,89.203 -40.441,133.031 l -0.238,0.79 -0.047,0.82 c -2.258,38.58 -7.379,77.44 -7.391,117.14 0,2.68 0.028,5.36 0.074,8.05 0.891,49.52 6.583,98.21 12.266,146.11 7.762,65.47 16.656,130.66 28.078,194.31 6.66,37.11 13.641,74.35 22.02,110.43 l 14.222,0 c -8.609,-36.65 -15.773,-74.76 -22.609,-112.87 -11.351,-63.27 -20.215,-128.19 -27.957,-193.5 -5.687,-47.89 -11.301,-96.11 -12.172,-144.74 -0.047,-2.59 -0.07,-5.19 -0.07,-7.79 -0.008,-38.23 4.976,-76.54 7.316,-115.51 13.391,-44.26 24.078,-91.299 39.832,-131.182 0.957,-2.429 1.926,-4.828 2.918,-7.207"
         inkscape:connector-curvature="0"
         id="path68" /></clipPath><clipPath
       id="clipPath78"><path
         d="M 0,2478.86 0,0 l 2466.67,0 0,2478.86 -2466.67,0 z"
         inkscape:connector-curvature="0"
         id="path80" /></clipPath></defs><g
     transform="matrix(0.91446456,0,0,-0.91446456,-18.083153,222.44333)"
     id="g10"
     style="display:inline" /><g
     inkscape:groupmode="layer"
     id="layer3"
     inkscape:label="dessin"
     style="display:inline"
     transform="translate(-26.185777,-6.901011)"><path
       style="fill:#130f0b;fill-opacity:0.41176471;fill-rule:nonzero;stroke:none;display:inline"
       id="path5413"
       inkscape:connector-curvature="0"
       d="m 86.074993,13.406347 c -1.718557,0 -3.375288,-0.09236 -5.008069,-0.09328 -2.020052,9.51e-4 -4.010841,0.143571 -6.006934,0.812044 -1.995728,0.667559 -3.978287,1.865508 -5.966508,3.904764 -1.790705,1.849962 -3.025232,4.75613 -4.424458,7.083442 l -0.0037,0.0064 0.0037,-0.0055 c -1.462046,2.454423 -3.075622,4.766189 -4.396563,7.661384 -1.535664,3.367059 -2.789848,7.124594 -4.037909,10.824517 l -0.0029,0.0091 -3.68328,12.042584 -7.32e-4,0.0027 c -1.240657,4.1663 -2.755556,8.166168 -3.693613,12.718373 -0.888037,4.322674 -1.218433,8.94895 -1.682524,13.429826 -0.428244,4.159899 -0.944459,8.362779 -1.005911,12.652532 -0.0029,0.180149 -0.0038,0.359384 -0.0038,0.539534 0.001,3.486853 0.464365,6.892323 0.673686,10.274843 l 0.0043,0.065 0.01637,0.0611 c 0.852372,3.14594 1.567849,6.47377 2.583362,9.53329 0.921232,2.76736 2.103997,5.13564 3.128841,7.63972 l 0,7.3e-4 c 1.194195,2.90343 2.063215,4.93921 3.053126,6.76457 0.989451,1.826 2.096772,3.42631 3.733942,5.42816 1.412021,1.72459 2.817282,3.59998 4.419051,5.02206 l 0.0083,0.007 -0.0086,-0.007 c 2.073648,1.84109 4.229765,3.48063 6.486297,4.63908 l 0,0 c 2.925921,1.49707 5.901867,2.29366 8.795599,3.20712 l 0,0 c 3.093172,0.97482 6.232712,2.13719 9.477598,2.55694 1.642466,0.21106 3.285306,0.29966 4.924845,0.29966 1.868983,0 3.733671,-0.11504 5.589032,-0.29793 3.013429,-0.2972 6.161839,-0.53505 9.235359,-1.95604 2.69694,-1.25099 5.18519,-3.44213 7.5436,-5.82688 2.54038,-2.57449 4.79362,-5.8683 7.08161,-8.93248 2.27153,-3.04234 4.59701,-6.05011 6.72497,-9.54975 2.17094,-3.57034 4.03279,-7.67611 6.03821,-11.42898 2.20203,-4.11975 4.63451,-7.91405 6.70577,-12.40937 1.77132,-3.846245 3.32774,-8.045466 4.71315,-12.39466 1.09279,-3.428327 1.96884,-7.098073 2.69584,-10.837319 0.64013,-3.290244 1.17143,-6.71217 1.40188,-10.211826 l 0,0 c 0.11339,-1.693588 0.16186,-3.402722 0.16186,-5.111857 0,-1.915803 -0.0613,-3.832521 -0.16095,-5.728206 l 0,8.78e-4 c -0.171,-3.269211 -0.70962,-6.395765 -1.06169,-9.536036 l -0.007,-0.06493 -0.0201,-0.0631 c -1.21806,-3.678891 -2.17642,-7.772949 -3.70449,-11.199448 l 0,8.78e-4 c -1.56099,-3.506971 -3.35792,-6.765209 -5.44289,-9.274499 -2.54039,-3.054312 -5.37248,-5.191416 -8.15794,-7.083443 -3.19331,-2.166366 -6.48721,-3.933112 -9.84421,-5.138376 -3.26464,-1.171429 -6.58323,-1.722852 -9.87531,-1.935922 -1.22629,-0.07956 -2.46448,-0.142656 -3.71089,-0.143571 -2.11992,8.78e-4 -4.26497,0.184722 -6.39641,0.801071 -3.454661,0.997681 -6.823095,2.828439 -10.041645,5.160324 -3.305972,2.396811 -6.504491,5.389854 -9.482171,8.974555 -2.921326,3.520081 -5.587268,7.735763 -8.093084,12.176403 -2.508011,4.441554 -4.868156,9.235177 -6.933836,14.437566 -1.99079,5.018582 -3.701848,10.448672 -5.170661,16.058912 -1.277412,4.88507 -2.172585,10.087459 -3.022393,15.256927 -0.715843,4.358338 -1.372063,8.806294 -1.678957,13.358498 -0.134975,1.987132 -0.214994,4.006271 -0.214994,6.024311 0,1.83176 0.06577,3.66252 0.215726,5.47033 0.257974,3.12033 0.95552,6.06655 1.690757,8.84927 0.850086,3.21526 1.974965,6.12088 3.0266,9.04424 2.734797,7.62654 5.614717,11.06575 9.841921,15.42519 l 0.186463,0.19285 15.101189,0 0.104981,-0.0383 c 2.842339,-1.04084 5.827612,-1.6764 8.770725,-3.20163 l -7.32e-4,0 c 2.859441,-1.48317 5.841871,-3.05705 8.526651,-5.81792 2.66082,-2.74238 4.94058,-6.48986 7.11974,-10.25672 1.77132,-3.06593 3.37164,-6.50806 4.73053,-10.23267 1.29854,-3.56358 2.40778,-7.4272 3.19057,-11.49574 0.58983,-3.082658 0.73157,-6.393019 0.86051,-9.595474 0.0878,-2.138933 0.16186,-4.302556 0.16186,-6.466179 0,-1.671641 -0.0439,-3.342368 -0.16278,-5.003036 -0.29811,-4.165386 -1.12387,-8.091182 -1.67712,-12.073675 l -0.0101,-0.07407 -0.0274,-0.0695 C 117.98855,63.19899 116.4486,57.278746 113.9201,52.833534 110.84751,47.448252 107.09966,43.692546 103.62653,39.59483 99.661773,34.921002 95.784626,29.661916 91.345171,26.20524 87.29263,23.052167 82.932097,21.41436 78.658804,20.224642 l 0,0 C 77.079012,19.78665 75.505497,19.68423 73.960959,19.68423 c -1.46817,0 -2.91385,0.09145 -4.32871,0.09145 -0.466194,0 -0.929096,-0.01006 -1.388523,-0.03567 l -0.03541,0.63281 0.04287,-0.631895 -9.573617,-0.647441 -0.175394,0.111565 c -2.369012,1.518925 -5.023154,2.469054 -7.454715,4.760702 l 0,0 c -2.240073,2.120644 -4.369769,4.820143 -6.145477,8.139649 -1.902543,3.559096 -3.442044,7.776607 -4.731256,12.15232 -1.425651,4.833859 -2.428727,10.062768 -3.362121,15.265157 -1.044501,5.820567 -1.857826,11.781961 -2.567633,17.768961 -0.519691,4.380285 -1.040204,8.832813 -1.121683,13.361241 -0.0042,0.245991 -0.0067,0.491068 -0.0067,0.736144 0.0011,3.630425 0.469395,7.184034 0.675881,10.712037 l 0.0043,0.075 0.02176,0.0722 c 1.21953,4.00792 2.200476,8.36452 3.698186,12.16521 1.585042,4.01332 3.607929,7.26433 5.373943,10.81895 l 0.05112,0.1025 0.08358,0.0786 c 2.643717,2.46731 5.211351,5.48395 8.091545,7.56153 l 0.0075,0.006 -0.0066,-0.006 c 2.516884,1.80606 5.165993,3.27204 7.923016,3.9022 l 0.0073,10e-4 -0.0066,-7.3e-4 c 1.394559,0.3154 2.793777,0.43794 4.184041,0.43794 1.709683,0 3.407478,-0.18472 5.078841,-0.4298 l 0,0 c 2.849567,-0.41544 5.782621,-1.0434 8.600269,-2.60549 2.748427,-1.52707 5.305357,-3.87715 7.739757,-6.45228 2.45653,-2.60376 4.582294,-5.99331 6.819528,-8.91429 l 0.06467,-0.0843 0.03358,-0.10031 c 1.331007,-3.99621 2.820575,-7.85086 4.022276,-12.05914 1.048065,-3.67432 1.994265,-7.486723 2.69127,-11.462815 0.547215,-3.129298 0.971249,-6.417712 1.014046,-9.739048 0.0029,-0.228616 0.0044,-0.454489 0.0044,-0.676703 -0.0029,-4.272379 -0.526549,-7.249876 -1.472383,-9.242486 -0.474424,-0.994938 -1.063793,-1.74846 -1.76537,-2.255074 -0.699748,-0.507528 -1.507769,-0.749861 -2.330787,-0.747117 -1.324606,0.0037 -2.671612,0.582514 -4.001149,1.510695 -1.992896,1.399135 -3.97326,3.62402 -5.69328,6.237559 -1.717453,2.61354 -3.167428,5.614813 -4.046872,8.573106 l 1.214138,0.360299 c 1.114184,-3.757535 3.237117,-7.670529 5.614725,-10.604131 1.187341,-1.467716 2.43906,-2.690355 3.637828,-3.529826 1.199507,-0.84314 2.338651,-1.285741 3.27461,-1.281169 0.586171,0.0018 1.099457,0.156374 1.58961,0.507528 0.73084,0.523992 1.422724,1.550928 1.919278,3.264635 0.496832,1.710049 0.793667,4.081255 0.793024,7.205981 0,0.216728 -7.32e-4,0.437114 -0.0037,0.661157 -0.04141,3.222574 -0.454767,6.446061 -0.995582,9.536037 -0.686945,3.919395 -1.621711,7.688822 -2.661545,11.333782 -1.180669,4.13796 -2.661641,7.97221 -4.005816,12.00701 l 0.600804,0.19927 -0.502956,-0.38399 c -2.281494,2.98381 -4.399394,6.34557 -6.734483,8.81352 -2.391603,2.53297 -4.877022,4.79847 -7.433316,6.21479 -2.613723,1.44952 -5.374221,2.05289 -8.168729,2.45973 l 0,0 c -1.640279,0.23968 -3.277719,0.41727 -4.89559,0.41617 -1.315915,0 -2.618661,-0.11604 -3.904303,-0.40684 l 0.0015,0 c -2.508742,-0.57045 -5.028553,-1.94434 -7.465783,-3.69645 l 7.31e-4,7.3e-4 c -2.703431,-1.9415 -5.257805,-4.92238 -7.966907,-7.45938 l -0.432633,0.46263 0.567243,-0.28148 c -1.804605,-3.62575 -3.798595,-6.83672 -5.329957,-10.72099 -1.449152,-3.66902 -2.429367,-7.99983 -3.66426,-12.06838 l -0.605832,0.18473 0.631895,-0.0375 c -0.21179,-3.589279 -0.674418,-7.117283 -0.673321,-10.637972 0,-0.23776 0.0021,-0.475521 0.0064,-0.712367 0.07965,-4.447042 0.59303,-8.85659 1.113086,-13.23596 0.707979,-5.972365 1.51856,-11.909069 2.556569,-17.694886 0.930925,-5.190501 1.928606,-10.379173 3.329931,-15.129816 1.273849,-4.325418 2.792318,-8.470685 4.633409,-11.913644 1.712152,-3.199712 3.758267,-5.789476 5.89939,-7.816844 l 0,0 c 2.199748,-2.089551 4.726963,-3.00493 7.264602,-4.612559 l -0.340364,-0.534047 -0.0425,0.631895 9.369699,0.633724 0.0037,0 c 0.488594,0.02743 0.975185,0.03749 1.458841,0.03749 1.468448,-8.78e-4 2.914128,-0.09236 4.32871,-0.09145 1.489575,0 2.941284,0.100592 4.358704,0.494726 l 0.0044,8.78e-4 -0.0051,-0.0018 c 4.201511,1.170514 8.378419,2.750709 12.248434,5.760212 4.237628,3.289329 8.099507,8.490803 12.093058,13.208526 3.52289,4.150755 7.18559,7.831475 10.15943,13.04758 2.41052,4.217511 3.96054,10.104834 5.98059,15.270644 l 0.58984,-0.231359 -0.62732,0.08779 c 0.56331,4.040105 1.38084,7.93572 1.6689,11.989541 0.11522,1.622261 0.15911,3.263724 0.15911,4.912504 0,2.13436 -0.0732,4.281523 -0.16094,6.414969 -0.12803,3.199711 -0.2716,6.453376 -0.83948,9.408005 -0.76816,3.99612 -1.85911,7.79581 -3.1357,11.30077 -1.33603,3.65896 -2.90617,7.03599 -4.63725,10.03269 -2.16454,3.74857 -4.4176,7.42353 -6.93137,10.00799 -2.52155,2.59342 -5.343852,4.09506 -8.201554,5.5765 l 0,0 c -2.749159,1.43205 -5.66502,2.0611 -8.620658,3.1356 l 0.217182,0.59541 0,-0.63363 -14.720685,0 0,0.63363 0.455038,-0.44077 c -4.198987,-4.35011 -6.859165,-7.49432 -9.559761,-14.97363 -1.059133,-2.94274 -2.16682,-5.80932 -2.993774,-8.93889 -0.729743,-2.75985 -1.40562,-5.63109 -1.652804,-8.62953 -0.146863,-1.76894 -0.211512,-3.56467 -0.211512,-5.36644 0,-1.98512 0.07864,-3.974993 0.212244,-5.938348 0.302139,-4.487278 0.951226,-8.894997 1.664603,-13.239618 0.848346,-5.163067 1.739217,-10.328874 2.998435,-15.140786 1.458117,-5.570918 3.155268,-10.954371 5.122464,-15.912598 2.041817,-5.142949 4.375801,-9.883533 6.859487,-14.282107 2.484417,-4.404976 5.11817,-8.561218 7.964079,-11.989545 2.914494,-3.508801 6.036929,-6.427772 9.251455,-8.757827 3.133138,-2.27153 6.381961,-4.026388 9.649791,-4.970115 1.97754,-0.571541 3.99749,-0.750776 6.04489,-0.750776 1.20252,0 2.41419,0.06218 3.6286,0.140828 3.20702,0.207583 6.40399,0.742545 9.52963,1.864593 3.23446,1.160456 6.43783,2.875077 9.56073,4.993891 2.75071,1.867337 5.46667,3.924882 7.8964,6.845682 1.96975,2.367549 3.72827,5.537083 5.25909,8.979127 l 0,8.78e-4 c 1.4604,3.263724 2.4215,7.329434 3.65785,11.079653 l 0.60171,-0.198439 -0.62915,0.07041 c 0.35847,3.189652 0.89069,6.289687 1.0553,9.46105 l 0,0 c 0.0988,1.87831 0.15911,3.772166 0.15911,5.66145 0,1.685358 -0.0476,3.366144 -0.15911,5.027726 l 0,8.78e-4 c -0.22588,3.426499 -0.74712,6.795386 -1.38176,10.052705 -0.71968,3.705411 -1.58568,7.329434 -2.65926,10.694663 -1.37353,4.31353 -2.91348,8.466113 -4.65646,12.250168 -2.02371,4.396837 -4.43698,8.165437 -6.67193,12.341617 -2.03103,3.80216 -3.88739,7.89082 -6.00346,11.36862 -2.08224,3.42385 -4.37663,6.39586 -6.65822,9.45008 -2.30536,3.09098 -4.54123,6.34446 -6.9673,8.79989 -2.3136,2.34478 -4.72321,4.43588 -7.17507,5.56717 -2.81198,1.30494 -5.79158,1.54992 -8.827146,1.84539 -1.824993,0.17932 -3.648165,0.2918 -5.465023,0.2918 -1.593816,0 -3.182336,-0.0868 -4.76308,-0.29007 -3.050559,-0.39038 -6.128288,-1.51773 -9.258222,-2.50828 l 0,0 c -2.931042,-0.92205 -5.825871,-1.70402 -8.599625,-3.12573 l 7.32e-4,0 c -2.1158,-1.08483 -4.197941,-2.65945 -6.223758,-4.45903 l 0,0 c -1.464877,-1.29561 -2.849099,-3.12454 -4.278685,-4.87601 -1.606714,-1.96683 -2.652218,-3.4821 -3.601344,-5.23065 -0.948775,-1.74854 -1.803983,-3.74464 -2.995252,-6.64276 l 0,7.4e-4 c -1.050537,-2.5616 -2.21465,-4.89706 -3.098755,-7.55897 -0.986615,-2.96735 -1.699989,-6.27625 -2.562695,-9.46398 l -0.611137,0.1647 0.631895,-0.0394 c -0.215082,-3.44388 -0.672314,-6.822823 -0.671582,-10.196282 0,-0.173749 0.0015,-0.347497 0.0039,-0.521245 0.05962,-4.199221 0.568706,-8.364608 0.99951,-12.540053 0.465097,-4.507396 0.796956,-9.096175 1.663137,-13.305455 0.910528,-4.428752 2.406592,-8.387469 3.66682,-12.611381 l -0.0015,0.0037 3.680076,-12.032525 -0.605551,-0.184722 0.60016,0.202097 c 1.248427,-3.702667 2.493379,-7.423623 3.990445,-10.703808 1.261325,-2.769913 2.836216,-5.033213 4.331914,-7.538846 l 0,9.51e-4 c 1.440647,-2.426989 2.699404,-5.282861 4.243298,-6.849339 1.873555,-1.916718 3.660053,-2.981155 5.462829,-3.587445 1.803236,-0.605375 3.641858,-0.746203 5.604387,-0.746203 1.584219,-8.78e-4 3.244528,0.09236 5.008062,0.09236 l 0,-1.266533" /><path
       d="m 83.148707,11.943204 c -1.718557,0 -3.375289,-0.09236 -5.008069,-0.09328 -2.020052,9.51e-4 -4.010842,0.143571 -6.006931,0.812045 -1.995728,0.667559 -3.978287,1.865508 -5.966516,3.904764 -1.790704,1.849961 -3.025231,4.75613 -4.424454,7.083442 l -0.0036,0.0064 0.0036,-0.0055 c -1.462046,2.454423 -3.075618,4.766189 -4.396562,7.661384 -1.535661,3.367059 -2.789849,7.124593 -4.03791,10.824517 l -0.0032,0.0091 -3.68328,12.042583 -8.78e-4,0.0027 c -1.240654,4.166301 -2.755556,8.166169 -3.693614,12.718373 -0.888037,4.322674 -1.218433,8.948951 -1.682523,13.429827 -0.428244,4.159899 -0.944459,8.362778 -1.005911,12.652532 -0.0029,0.180149 -0.0038,0.359384 -0.0038,0.539534 10e-4,3.486853 0.464366,6.892325 0.673686,10.274835 l 0.0043,0.065 0.01637,0.0611 c 0.852373,3.14594 1.56785,6.47377 2.583363,9.53329 0.921231,2.76735 2.104,5.13563 3.12884,7.63972 l 0,7.3e-4 c 1.194199,2.90342 2.063215,4.9392 3.053123,6.76456 0.989451,1.82601 2.096776,3.42632 3.733942,5.42817 1.412024,1.72459 2.817282,3.59997 4.419058,5.02206 l 0.0082,0.007 -0.0086,-0.007 c 2.07364,1.84109 4.229765,3.48063 6.486298,4.63907 l 0,0 c 2.92592,1.49708 5.901862,2.29366 8.795594,3.20713 l 0,0 c 3.093173,0.97482 6.232713,2.13719 9.477599,2.55693 1.642466,0.21106 3.285305,0.29967 4.924845,0.29967 1.868982,0 3.733671,-0.11504 5.589032,-0.29793 3.013431,-0.2972 6.161841,-0.53505 9.235351,-1.95604 2.69694,-1.25099 5.1852,-3.44213 7.5436,-5.82688 2.54038,-2.57449 4.79363,-5.8683 7.08162,-8.93248 2.27153,-3.04234 4.59701,-6.05011 6.72497,-9.54977 2.17094,-3.57034 4.03279,-7.6761 6.03821,-11.42897 2.20203,-4.11975 4.6345,-7.91405 6.70577,-12.409379 1.77131,-3.846238 3.32773,-8.045459 4.71315,-12.394653 1.09278,-3.428327 1.96884,-7.098074 2.69584,-10.837319 0.64012,-3.290244 1.17143,-6.71217 1.40187,-10.211826 l 0,0 c 0.1134,-1.693588 0.16186,-3.402723 0.16186,-5.111857 0,-1.915803 -0.0613,-3.832521 -0.16094,-5.728206 l 0,8.78e-4 c -0.17101,-3.269211 -0.70963,-6.395765 -1.0617,-9.536037 l -0.007,-0.06493 -0.0201,-0.0631 c -1.21807,-3.678891 -2.17643,-7.772948 -3.7045,-11.199447 l 0,8.78e-4 c -1.56099,-3.506972 -3.35791,-6.765209 -5.44289,-9.2745 -2.54038,-3.054311 -5.37248,-5.191415 -8.15794,-7.083442 -3.19331,-2.166367 -6.48721,-3.933112 -9.84421,-5.138377 -3.26464,-1.171429 -6.58323,-1.722851 -9.8753,-1.935921 -1.2263,-0.079558 -2.46448,-0.1426565 -3.7109,-0.143571 -2.11991,8.779e-4 -4.26497,0.184722 -6.3964,0.801071 -3.454664,0.997681 -6.823098,2.828439 -10.041647,5.160323 -3.305973,2.396812 -6.504492,5.389855 -9.482171,8.974556 -2.921327,3.520081 -5.587269,7.735763 -8.093085,12.176403 -2.50801,4.441554 -4.868152,9.235177 -6.933836,14.437566 -1.990789,5.018582 -3.701844,10.448672 -5.170657,16.058912 -1.277415,4.88507 -2.172585,10.087459 -3.022397,15.256927 -0.715842,4.358338 -1.372062,8.806294 -1.678956,13.358498 -0.134975,1.987132 -0.214991,4.006273 -0.214991,6.024313 0,1.83176 0.06575,3.66251 0.215722,5.47032 0.257971,3.12034 0.955524,6.06656 1.690754,8.84928 0.850086,3.21525 1.974969,6.12087 3.026603,9.04423 2.734798,7.62654 5.614721,11.06576 9.841925,15.42519 l 0.186459,0.19286 15.10119,0 0.10498,-0.0383 c 2.842339,-1.04085 5.827612,-1.6764 8.770725,-3.20163 l -7.31e-4,0 c 2.859435,-1.48317 5.841873,-3.05706 8.526653,-5.81792 2.66081,-2.74238 4.94057,-6.48986 7.11974,-10.25672 1.77132,-3.06593 3.37163,-6.50806 4.73052,-10.23268 1.29854,-3.56358 2.40779,-7.42719 3.19057,-11.49573 0.58983,-3.08266 0.73157,-6.393022 0.86051,-9.595477 0.0878,-2.138932 0.16186,-4.302555 0.16186,-6.466179 0,-1.671641 -0.0439,-3.342368 -0.16277,-5.003035 -0.29812,-4.165386 -1.12388,-8.091183 -1.67713,-12.073676 l -0.0101,-0.07407 -0.0274,-0.0695 C 115.06171,61.735837 113.52176,55.815594 110.99325,51.370382 107.92066,45.9851 104.17281,42.229394 100.69968,38.131678 96.73493,33.45785 92.857784,28.198764 88.418329,24.742088 84.365788,21.589014 80.005255,19.951208 75.731962,18.76149 l 0,0 C 74.15217,18.323498 72.57865,18.221078 71.03412,18.221078 c -1.468173,0 -2.91385,0.09145 -4.32871,0.09145 -0.466194,0 -0.929096,-0.01006 -1.388523,-0.03566 l -0.03539,0.63281 0.04288,-0.631895 -9.573621,-0.647441 -0.175394,0.111564 c -2.369012,1.518926 -5.023154,2.469055 -7.454715,4.760703 l 0,0 c -2.240073,2.120643 -4.369769,4.820143 -6.145477,8.139649 -1.902543,3.559096 -3.442044,7.776607 -4.731256,12.152319 -1.425651,4.83386 -2.428727,10.062769 -3.362121,15.265157 -1.044501,5.820567 -1.857826,11.781962 -2.567633,17.768961 -0.519691,4.380286 -1.040204,8.832813 -1.121683,13.361242 -0.0042,0.245991 -0.0067,0.491067 -0.0067,0.736144 0.0011,3.630424 0.469395,7.184034 0.675881,10.712039 l 0.0043,0.075 0.02176,0.0722 c 1.21953,4.00792 2.200476,8.36451 3.698186,12.16521 1.585042,4.01332 3.607929,7.26432 5.373943,10.81894 l 0.05112,0.10251 0.08358,0.0786 c 2.643717,2.46731 5.211351,5.48395 8.091548,7.56152 l 0.0075,0.006 -0.0067,-0.006 c 2.51688,1.80607 5.165993,3.27204 7.923012,3.9022 l 0.0071,0.001 -0.0065,-7.3e-4 c 1.394559,0.3154 2.793781,0.43794 4.184041,0.43794 1.709683,0 3.407478,-0.18472 5.078845,-0.4298 l 0,0 c 2.849563,-0.41545 5.782617,-1.04341 8.600265,-2.60549 2.748427,-1.52707 5.305357,-3.87715 7.739757,-6.45228 2.45653,-2.60376 4.582294,-5.99332 6.819528,-8.9143 l 0.06467,-0.0843 0.03358,-0.10031 c 1.331007,-3.99622 2.820575,-7.85087 4.022276,-12.05914 1.048065,-3.67432 1.994265,-7.486726 2.69127,-11.462817 0.547215,-3.129298 0.971249,-6.417713 1.014046,-9.739048 0.0029,-0.228616 0.0044,-0.454489 0.0044,-0.676704 -0.0029,-4.272378 -0.526549,-7.249875 -1.472383,-9.242489 -0.474424,-0.994938 -1.063793,-1.748457 -1.76537,-2.25507 -0.699748,-0.507528 -1.507769,-0.749861 -2.330787,-0.747118 -1.324606,0.0037 -2.671612,0.582514 -4.001149,1.510696 -1.992896,1.399131 -3.97326,3.624019 -5.69328,6.237559 -1.717453,2.61354 -3.167428,5.614812 -4.046872,8.573105 l 1.214138,0.360299 c 1.114184,-3.757535 3.237117,-7.670528 5.614725,-10.604131 1.187341,-1.467715 2.43906,-2.690355 3.637828,-3.529829 1.199507,-0.843137 2.338651,-1.285737 3.27461,-1.281165 0.586171,0.0018 1.099457,0.156373 1.58961,0.507528 0.73084,0.523988 1.422724,1.550928 1.919278,3.264634 0.496832,1.710049 0.793667,4.081256 0.793024,7.205981 0,0.216728 -7.32e-4,0.437114 -0.0037,0.661158 -0.04141,3.222573 -0.454767,6.446061 -0.995582,9.536037 -0.686945,3.919395 -1.621711,7.688814 -2.661545,11.333784 -1.180669,4.13795 -2.661641,7.97221 -4.005816,12.00701 l 0.600804,0.19926 -0.502956,-0.38398 c -2.281494,2.98381 -4.399394,6.34556 -6.734483,8.81352 -2.391603,2.53297 -4.877022,4.79846 -7.43332,6.21479 -2.613723,1.44952 -5.374217,2.05288 -8.168729,2.45972 l 0,0 c -1.640275,0.23969 -3.277715,0.41728 -4.895586,0.41618 -1.315915,0 -2.618661,-0.11605 -3.904307,-0.40685 l 0.0011,0 c -2.508742,-0.57044 -5.028549,-1.94433 -7.46578,-3.69645 l 9.51e-4,7.3e-4 c -2.703432,-1.94149 -5.257806,-4.92237 -7.966907,-7.45937 l -0.432633,0.46262 0.567242,-0.28147 c -1.804604,-3.62576 -3.798594,-6.83672 -5.329956,-10.721 -1.449152,-3.66901 -2.429367,-7.99982 -3.66426,-12.06837 l -0.605833,0.18472 0.631895,-0.0375 c -0.21179,-3.589271 -0.674417,-7.117275 -0.67332,-10.637964 0,-0.237761 0.0021,-0.475521 0.0064,-0.712368 0.07965,-4.447041 0.59303,-8.856589 1.113086,-13.23596 0.707978,-5.972364 1.51856,-11.909068 2.556569,-17.694885 0.930924,-5.190501 1.928605,-10.379173 3.329931,-15.129816 1.273849,-4.325418 2.792317,-8.470686 4.633409,-11.913645 1.712152,-3.199711 3.758266,-5.789475 5.899394,-7.816843 l 0,0 c 2.199744,-2.089551 4.726958,-3.00493 7.264598,-4.612559 l -0.340364,-0.534047 -0.04252,0.631895 9.369695,0.633724 0.004,0 c 0.488598,0.02743 0.975185,0.03749 1.458845,0.03749 1.468447,-8.78e-4 2.914124,-0.09236 4.328709,-0.09145 1.489572,0 2.941284,0.100591 4.358704,0.494726 l 0.0044,8.77e-4 -0.0051,-0.0018 c 4.201511,1.170515 8.378419,2.75071 12.248433,5.760213 4.237629,3.289329 8.099508,8.490803 12.093062,13.208526 3.522883,4.150754 7.185583,7.831474 10.159423,13.04758 2.41053,4.217511 3.96055,10.104834 5.9806,15.270644 l 0.58984,-0.23136 -0.62733,0.08779 c 0.56331,4.040104 1.38085,7.93572 1.6689,11.989541 0.11522,1.62226 0.15912,3.263724 0.15912,4.912504 0,2.13436 -0.0732,4.281523 -0.16095,6.414969 -0.12802,3.199711 -0.27159,6.453376 -0.83948,9.408011 -0.76815,3.996117 -1.8591,7.795807 -3.13569,11.300767 -1.33604,3.65895 -2.90617,7.03598 -4.63725,10.03268 -2.16454,3.74858 -4.4176,7.42353 -6.93137,10.00799 -2.52155,2.59342 -5.343859,4.09507 -8.20156,5.5765 l 0,0 c -2.749159,1.43205 -5.665021,2.06111 -8.620658,3.13561 l 0.217182,0.59541 0,-0.63364 -14.720689,0 0,0.63364 0.455038,-0.44077 c -4.199313,-4.35011 -6.85949,-7.49432 -9.560087,-14.97363 -1.059133,-2.94275 -2.166824,-5.80932 -2.993774,-8.93889 -0.729743,-2.75985 -1.405623,-5.63109 -1.652803,-8.62953 -0.146863,-1.76894 -0.211516,-3.56467 -0.211516,-5.36645 0,-1.98512 0.07864,-3.974986 0.212247,-5.938341 0.302139,-4.487278 0.951226,-8.894997 1.6646,-13.239618 0.848349,-5.163067 1.73922,-10.328874 2.998438,-15.140786 1.458114,-5.570919 3.155269,-10.954371 5.122465,-15.912598 2.041816,-5.142949 4.375804,-9.883533 6.85949,-14.282108 2.484414,-4.404976 5.118167,-8.561217 7.964075,-11.989545 2.914494,-3.5088 6.03693,-6.427771 9.251455,-8.757827 3.133139,-2.27153 6.381961,-4.026387 9.649797,-4.970115 1.97753,-0.57154 3.99749,-0.750775 6.04489,-0.750775 1.20252,0 2.41419,0.06218 3.62859,0.140828 3.20703,0.207583 6.404,0.742545 9.52964,1.864593 3.23446,1.160455 6.43783,2.875076 9.56073,4.993891 2.75071,1.867336 5.46667,3.924882 7.8964,6.845681 1.96975,2.367549 3.72827,5.537083 5.25908,8.979128 l 0,8.78e-4 c 1.4604,3.263724 2.42151,7.329433 3.65786,11.079652 l 0.60171,-0.198438 -0.62915,0.07041 c 0.35847,3.189653 0.89069,6.289688 1.05529,9.461051 l 0,0 c 0.0988,1.87831 0.15912,3.772166 0.15912,5.66145 0,1.685358 -0.0476,3.366144 -0.15912,5.027726 l 0,8.78e-4 c -0.22587,3.426499 -0.74711,6.795386 -1.38175,10.052705 -0.71968,3.705411 -1.58568,7.329434 -2.65927,10.694663 -1.37352,4.31353 -2.91347,8.466113 -4.65645,12.250167 -2.02371,4.39684 -4.43698,8.16544 -6.67193,12.34161 -2.03103,3.80216 -3.88739,7.89083 -6.00346,11.36863 -2.08224,3.42385 -4.37663,6.39586 -6.65822,9.45007 -2.30536,3.09099 -4.54123,6.34447 -6.9673,8.7999 -2.3136,2.34478 -4.72321,4.43588 -7.17508,5.56717 -2.81198,1.30494 -5.791572,1.54992 -8.827141,1.84539 -1.824993,0.17932 -3.648165,0.2918 -5.465023,0.2918 -1.593817,0 -3.182337,-0.0868 -4.76308,-0.29007 -3.050559,-0.39038 -6.128288,-1.51773 -9.258223,-2.50828 l 0,0 c -2.931041,-0.92206 -5.82587,-1.70402 -8.599624,-3.12573 l 8.78e-4,0 c -2.115797,-1.08484 -4.197941,-2.65945 -6.223755,-4.45903 l 0,0 c -1.46488,-1.29561 -2.849105,-3.12454 -4.278688,-4.87601 -1.606714,-1.96683 -2.652221,-3.4821 -3.601344,-5.23065 -0.948391,-1.74855 -1.803599,-3.74464 -2.994872,-6.64276 l 0,7.3e-4 c -1.050537,-2.5616 -2.21465,-4.89705 -3.098754,-7.55896 -0.986616,-2.96735 -1.69999,-6.27625 -2.562696,-9.46398 l -0.611136,0.16469 0.631895,-0.0394 c -0.215083,-3.44387 -0.672315,-6.822815 -0.671583,-10.196275 0,-0.173748 0.0015,-0.347496 0.004,-0.521244 0.05962,-4.199222 0.568706,-8.364608 0.99951,-12.540053 0.465097,-4.507396 0.796956,-9.096175 1.663137,-13.305456 0.910532,-4.428752 2.406596,-8.387469 3.66682,-12.61138 l -0.0015,0.0037 3.680079,-12.032524 -0.605558,-0.184722 0.600163,0.202097 c 1.248427,-3.702667 2.493379,-7.423624 3.990449,-10.703808 1.261321,-2.769913 2.836212,-5.033213 4.33191,-7.538846 l 0,9.51e-4 c 1.440648,-2.426989 2.699408,-5.282862 4.243298,-6.849339 1.873555,-1.916718 3.660053,-2.981155 5.462829,-3.587445 1.803236,-0.605375 3.641859,-0.746203 5.604387,-0.746203 1.584219,-8.78e-4 3.244528,0.09236 5.008062,0.09236 l 0,-1.266534"
       inkscape:connector-curvature="0"
       id="path48"
       style="fill:#ffffff;fill-opacity:1;fill-rule:nonzero;stroke:none;display:inline" /></g><g
     inkscape:groupmode="layer"
     id="layer4"
     inkscape:label="nom"
     style="display:inline"
     transform="translate(-26.185777,-6.901011)"><g
       transform="matrix(0.08429741,0,0,-0.08429741,-9.5869424,203.77014)"
       id="g12"
       style="display:inline"><g
         id="g74"
         transform="translate(328.60726,182.53457)"><rect
           transform="scale(1,-1)"
           y="-1465.8721"
           x="253.93941"
           height="535.48419"
           width="1971.9119"
           id="rect5401"
           style="fill:#130f0b;fill-opacity:0.41176471;stroke:none" /><rect
           style="fill:#8c571f;fill-opacity:0.99607843;stroke:none"
           id="rect-conteneur"
           width="1971.9119"
           height="535.48419"
           x="234.36673"
           y="-1493.5693"
           transform="scale(1,-1)" /><g
           clip-path="url(#clipPath78)"
           id="test-artemise"
           transform="matrix(1.0307723,0,0,1.0307723,-25.571209,-30.534156)"><path
             d="m 266.938,992.262 1908.42,0 0,471.227 -1908.42,0 0,-471.227 z"
             inkscape:connector-curvature="0"
             id="path82"
             style="fill:#ffffff;fill-opacity:0;fill-rule:nonzero;stroke:none" /><path
             d="m 482.594,1378.62 0,-239.33 c 0,-11.97 5.976,-17.96 17.949,-17.96 l 3.984,0 0,-21.93 -4.316,0 c -11.086,0 -20.5,3.88 -28.262,11.63 -7.531,7.54 -11.301,16.96 -11.301,28.26 l 0,239.33 21.946,0"
             inkscape:connector-curvature="0"
             id="path84"
             style="fill:#ffffff;fill-opacity:1;fill-rule:nonzero;stroke:none" /><path
             d="m 571.352,1336.74 0,-36.9 c 0,-6.64 -0.723,-12.91 -2.157,-18.78 -1.445,-5.88 -3.664,-11.04 -6.64,-15.47 -3,-4.43 -6.778,-7.97 -11.301,-10.63 -4.551,-2.65 -10.039,-4 -16.465,-4 l 0,16.64 c 3.77,0 6.875,0.94 9.309,2.81 2.429,1.9 4.433,4.38 5.984,7.48 1.543,3.11 2.609,6.59 3.156,10.47 0.555,3.89 0.828,7.71 0.828,11.48 l -19.609,0 0,36.9 36.895,0"
             inkscape:connector-curvature="0"
             id="path86"
             style="fill:#ffffff;fill-opacity:1;fill-rule:nonzero;stroke:none" /><path
             d="m 795.941,1218.4 0,-79.12 c 0,-11.95 5.879,-17.95 17.629,-17.95 l 4.317,0 0,-21.93 -4.66,0 c -9.969,0 -18.497,3.04 -25.586,9.15 -7.11,6.08 -11.426,13.79 -12.977,23.09 -8.633,-10.86 -19.219,-19.1 -31.738,-24.76 -12.52,-5.65 -25.871,-8.48 -40.059,-8.48 -25.48,0 -47.422,8.19 -65.812,24.61 -18.164,18.15 -27.246,40.1 -27.246,65.8 l 0,29.59 c 0,25.47 9.082,47.31 27.246,65.47 18.39,18.4 40.332,27.61 65.812,27.61 25.711,0 47.645,-9.09 65.828,-27.26 18.164,-18.18 27.246,-40.12 27.246,-65.82 m -22.265,0 c 0,19.49 -6.981,36.11 -20.946,49.85 -13.742,13.98 -30.363,20.95 -49.863,20.95 -19.492,0 -36.222,-6.97 -50.187,-20.95 -13.965,-13.74 -20.946,-30.36 -20.946,-49.85 l 0,-29.59 c 0,-19.73 6.981,-36.56 20.946,-50.52 14.406,-13.75 31.132,-20.61 50.187,-20.61 19.5,0 36.121,6.99 49.863,20.95 13.965,13.95 20.946,30.69 20.946,50.18 l 0,29.59"
             inkscape:connector-curvature="0"
             id="path88"
             style="fill:#ffffff;fill-opacity:1;fill-rule:nonzero;stroke:none" /><path
             d="m 837.828,1099.4 0,119 c 0,25.48 9.09,47.31 27.254,65.48 18.398,18.39 40.332,27.59 65.813,27.59 26.375,0 48.867,-9.75 67.48,-29.25 l -15.617,-15.64 c -13.965,15.08 -31.25,22.62 -51.863,22.62 -19.493,0 -36.231,-6.98 -50.188,-20.94 -13.965,-13.75 -20.937,-30.37 -20.937,-49.86 l 0,-119 -21.942,0"
             inkscape:connector-curvature="0"
             id="path90"
             style="fill:#ffffff;fill-opacity:1;fill-rule:nonzero;stroke:none" /><path
             d="m 1074.2,1356.34 0,-48.86 33.25,0 0,-21.94 -33.25,0 0,-146.26 c 0,-11.95 5.87,-17.94 17.62,-17.94 l 11.63,0 0,-21.94 -11.97,0 c -10.86,0 -20.16,3.86 -27.92,11.64 -7.53,7.52 -11.3,16.94 -11.3,28.24 l 0,146.26 -32.58,0 0,21.94 32.58,0 0,48.86 21.94,0"
             inkscape:connector-curvature="0"
             id="path92"
             style="fill:#ffffff;fill-opacity:1;fill-rule:nonzero;stroke:none" /><path
             d="m 1282.95,1124.99 c -18.38,-17.72 -40.89,-26.59 -67.48,-26.59 -25.48,0 -47.42,8.19 -65.82,24.61 -18.17,18.15 -27.24,40.1 -27.24,65.8 l 0,29.59 c 0,25.47 9.07,47.31 27.24,65.47 18.4,18.4 40.34,27.6 65.82,27.6 25.47,0 47.31,-9.08 65.49,-27.25 18.38,-17.96 27.57,-39.9 27.57,-65.82 l 0,-25.93 -164.2,0 0,-3.66 c 0,-19.73 6.98,-36.56 20.95,-50.52 14.4,-13.75 31.13,-20.61 50.19,-20.61 20.17,0 37.45,7.64 51.84,22.93 l 15.64,-15.62 z m 3.34,89.76 0,3.65 c 0,19.49 -6.99,36.11 -20.94,49.85 -13.77,13.98 -30.39,20.95 -49.88,20.95 -19.51,0 -36.23,-6.97 -50.19,-20.95 -13.97,-13.74 -20.95,-30.36 -20.95,-49.85 l 0,-3.65 141.96,0"
             inkscape:connector-curvature="0"
             id="path94"
             style="fill:#ffffff;fill-opacity:1;fill-rule:nonzero;stroke:none" /><path
             d="m 1471.42,1099.4 -21.94,0 0,140.6 c 0,13.52 -4.76,25.04 -14.28,34.57 -9.78,9.76 -21.29,14.63 -34.57,14.63 -13.54,0 -25.17,-4.87 -34.93,-14.63 -9.73,-9.75 -14.4,-21.27 -13.96,-34.57 l 0,-140.6 -21.93,0 0,140.6 c 0,19.07 6.86,35.78 20.61,50.2 13.51,14.18 30.24,21.27 50.21,21.27 12.63,0 24.15,-2.99 34.57,-8.97 10.41,-5.99 18.84,-13.97 25.24,-23.94 6.22,9.97 14.59,17.95 25.11,23.94 10.51,5.98 22.1,8.97 34.74,8.97 19.49,0 36.22,-7.09 50.2,-21.27 13.95,-13.97 20.81,-30.71 20.6,-50.2 l 0,-140.6 -22.3,0 0,141.93 c -0.43,13.3 -5.28,24.49 -14.61,33.57 -9.29,9.53 -20.6,14.3 -33.89,14.3 -13.3,0 -24.7,-4.77 -34.22,-14.3 -9.33,-9.08 -14.22,-20.27 -14.65,-33.57 l 0,-141.93"
             inkscape:connector-curvature="0"
             id="path96"
             style="fill:#ffffff;fill-opacity:1;fill-rule:nonzero;stroke:none" /><path
             d="m 1646.93,1341.72 -22.27,0 0,36.9 22.27,0 0,-36.9 z m 0,-242.32 -22.27,0 0,208.08 22.27,0 0,-208.08"
             inkscape:connector-curvature="0"
             id="path98"
             style="fill:#ffffff;fill-opacity:1;fill-rule:nonzero;stroke:none" /><path
             d="m 1673.82,1123 17.95,12.96 c 6.22,-8.63 14.76,-13.85 25.63,-15.63 11.05,-1.98 21.14,0.23 30.23,6.66 9.3,6.43 14.83,15.18 16.61,26.25 2.65,16.18 -0.43,27.7 -9.28,34.58 -4.46,3.54 -9.16,6.92 -14.14,10.14 -4.98,3.19 -10.25,6.25 -15.81,9.13 -5.53,3.11 -10.74,6.37 -15.59,9.81 -4.9,3.43 -9.44,7.26 -13.64,11.47 -8.42,8.42 -11.08,21.95 -7.96,40.56 2.19,14.17 9.06,25.36 20.58,33.57 11.54,8.19 24.5,11.17 38.88,8.97 14.86,-3.1 26.38,-10.53 34.57,-22.27 l -17.92,-12.63 c -5.13,7.08 -11.86,11.41 -20.29,12.96 -8.21,1.33 -15.66,-0.33 -22.43,-4.98 -6.76,-4.66 -10.81,-11.09 -12.13,-19.27 -2,-13.53 1.43,-23.4 10.29,-29.59 8.87,-5.99 18.84,-11.98 29.91,-17.95 11.31,-6.21 21.07,-14.09 29.27,-23.62 8.42,-9.74 10.98,-24.7 7.64,-44.86 -3.13,-17.28 -11.62,-30.8 -25.6,-40.57 -13.95,-7.09 -29.48,-10.18 -46.54,-9.29 -16.41,1.77 -29.8,9.65 -40.23,23.6"
             inkscape:connector-curvature="0"
             id="path100"
             style="fill:#ffffff;fill-opacity:1;fill-rule:nonzero;stroke:none" /><path
             d="m 1968.34,1124.99 c -18.4,-17.72 -40.89,-26.59 -67.46,-26.59 -25.5,0 -47.44,8.19 -65.83,24.61 -18.18,18.15 -27.26,40.1 -27.26,65.8 l 0,29.59 c 0,25.47 9.08,47.31 27.26,65.47 18.39,18.4 40.33,27.6 65.83,27.6 25.46,0 47.28,-9.08 65.46,-27.25 18.39,-17.96 27.59,-39.9 27.59,-65.82 l 0,-25.93 -164.2,0 0,-3.66 c 0,-19.73 6.98,-36.56 20.95,-50.52 14.38,-13.75 31.12,-20.61 50.2,-20.61 20.15,0 37.45,7.64 51.82,22.93 l 15.64,-15.62 z m 3.33,89.76 0,3.65 c 0,19.49 -7,36.11 -20.94,49.85 -13.77,13.98 -30.38,20.95 -49.85,20.95 -19.54,0 -36.25,-6.97 -50.2,-20.95 -13.97,-13.74 -20.95,-30.36 -20.95,-49.85 l 0,-3.65 141.94,0"
             inkscape:connector-curvature="0"
             id="path102"
             style="fill:#ffffff;fill-opacity:1;fill-rule:nonzero;stroke:none" /></g></g></g></g></svg>